<?xml version="1.0" encoding="UTF-8" standalone="no"?>
<!DOCTYPE svg PUBLIC "-//W3C//DTD SVG 1.1//EN"
 "http://www.w3.org/Graphics/SVG/1.1/DTD/svg11.dtd">
<!-- Generated by graphviz version 2.43.0 (0)
 -->
<!-- Title: pastafarianism Pages: 1 -->
<svg width="242pt" height="188pt"
 viewBox="0.00 0.00 242.00 188.00" xmlns="http://www.w3.org/2000/svg" xmlns:xlink="http://www.w3.org/1999/xlink">
<g id="graph0" class="graph" transform="scale(1 1) rotate(0) translate(4 184)">
<title>pastafarianism</title>
<polygon fill="white" stroke="transparent" points="-4,4 -4,-184 238,-184 238,4 -4,4"/>
<!-- BCCS -->
<g id="node1" class="node">
<title>BCCS</title>
<polygon fill="cyan" stroke="black" points="126,-154.54 126,-169.46 110.18,-180 87.82,-180 72,-169.46 72,-154.54 87.82,-144 110.18,-144 126,-154.54"/>
<text text-anchor="middle" x="99" y="-159.8" font-family="Times,serif" font-size="9.00">BCCS</text>
</g>
<!-- PA -->
<g id="node2" class="node">
<title>PA</title>
<ellipse fill="gray" stroke="black" cx="27" cy="-90" rx="27" ry="18"/>
<text text-anchor="middle" x="27" y="-87.8" font-family="Times,serif" font-size="9.00">PA</text>
</g>
<!-- BCCS&#45;&gt;PA -->
<g id="edge1" class="edge">
<title>BCCS&#45;&gt;PA</title>
<path fill="none" stroke="black" d="M83.73,-146.15C73.67,-136.37 60.33,-123.4 49.11,-112.5"/>
<polygon fill="black" stroke="black" points="51.36,-109.81 41.75,-105.35 46.49,-114.83 51.36,-109.81"/>
</g>
<!-- S0 -->
<g id="node3" class="node">
<title>S0</title>
<ellipse fill="gray" stroke="black" cx="99" cy="-90" rx="27" ry="18"/>
<text text-anchor="middle" x="99" y="-87.8" font-family="Times,serif" font-size="9.00">S0</text>
</g>
<!-- BCCS&#45;&gt;S0 -->
<g id="edge2" class="edge">
<title>BCCS&#45;&gt;S0</title>
<path fill="none" stroke="black" d="M99,-143.7C99,-135.98 99,-126.71 99,-118.11"/>
<polygon fill="black" stroke="black" points="102.5,-118.1 99,-108.1 95.5,-118.1 102.5,-118.1"/>
</g>
<!-- MZCS -->
<g id="node4" class="node">
<title>MZCS</title>
<polygon fill="cyan" stroke="black" points="198.49,-82.54 198.49,-97.46 182.39,-108 159.61,-108 143.51,-97.46 143.51,-82.54 159.61,-72 182.39,-72 198.49,-82.54"/>
<text text-anchor="middle" x="171" y="-87.8" font-family="Times,serif" font-size="9.00">MZCS</text>
</g>
<!-- BCCS&#45;&gt;MZCS -->
<g id="edge3" class="edge">
<title>BCCS&#45;&gt;MZCS</title>
<path fill="none" stroke="black" d="M114.27,-146.15C124.2,-136.5 137.32,-123.75 148.44,-112.94"/>
<polygon fill="black" stroke="black" points="151.02,-115.3 155.75,-105.82 146.14,-110.29 151.02,-115.3"/>
</g>
<!-- S1 -->
<g id="node5" class="node">
<title>S1</title>
<ellipse fill="gray" stroke="black" cx="135" cy="-18" rx="27" ry="18"/>
<text text-anchor="middle" x="135" y="-15.8" font-family="Times,serif" font-size="9.00">S1</text>
</g>
<!-- MZCS&#45;&gt;S1 -->
<g id="edge4" class="edge">
<title>MZCS&#45;&gt;S1</title>
<path fill="none" stroke="black" d="M162.1,-71.7C157.84,-63.4 152.65,-53.31 147.95,-44.19"/>
<polygon fill="black" stroke="black" points="150.99,-42.44 143.3,-35.14 144.76,-45.64 150.99,-42.44"/>
</g>
<!-- S2 -->
<g id="node6" class="node">
<title>S2</title>
<ellipse fill="gray" stroke="black" cx="207" cy="-18" rx="27" ry="18"/>
<text text-anchor="middle" x="207" y="-15.8" font-family="Times,serif" font-size="9.00">S2</text>
</g>
<!-- MZCS&#45;&gt;S2 -->
<g id="edge5" class="edge">
<title>MZCS&#45;&gt;S2</title>
<path fill="none" stroke="black" d="M179.9,-71.7C184.16,-63.4 189.35,-53.31 194.05,-44.19"/>
<polygon fill="black" stroke="black" points="197.24,-45.64 198.7,-35.14 191.01,-42.44 197.24,-45.64"/>
</g>
</g>
</svg>
