<?xml version="1.0" encoding="UTF-8" standalone="no"?>
<!DOCTYPE svg PUBLIC "-//W3C//DTD SVG 1.1//EN"
 "http://www.w3.org/Graphics/SVG/1.1/DTD/svg11.dtd">
<!-- Generated by graphviz version 2.43.0 (0)
 -->
<!-- Title: pastafarianism Pages: 1 -->
<svg width="206pt" height="116pt"
 viewBox="0.00 0.00 206.00 116.00" xmlns="http://www.w3.org/2000/svg" xmlns:xlink="http://www.w3.org/1999/xlink">
<g id="graph0" class="graph" transform="scale(1 1) rotate(0) translate(4 112)">
<title>pastafarianism</title>
<polygon fill="white" stroke="transparent" points="-4,4 -4,-112 202,-112 202,4 -4,4"/>
<!-- SituationSelector -->
<g id="node1" class="node">
<title>SituationSelector</title>
<polygon fill="cyan" stroke="black" points="159.73,-82.54 159.73,-97.46 124.16,-108 73.84,-108 38.27,-97.46 38.27,-82.54 73.84,-72 124.16,-72 159.73,-82.54"/>
<text text-anchor="middle" x="99" y="-87.8" font-family="Times,serif" font-size="9.00">SituationSelector</text>
</g>
<!-- S0 -->
<g id="node2" class="node">
<title>S0</title>
<ellipse fill="gray" stroke="black" cx="27" cy="-18" rx="27" ry="18"/>
<text text-anchor="middle" x="27" y="-15.8" font-family="Times,serif" font-size="9.00">S0</text>
</g>
<!-- SituationSelector&#45;&gt;S0 -->
<g id="edge1" class="edge">
<title>SituationSelector&#45;&gt;S0</title>
<path fill="none" stroke="black" d="M81.2,-71.7C71.51,-62.28 59.44,-50.53 49.14,-40.53"/>
<polygon fill="black" stroke="black" points="51.3,-37.74 41.69,-33.28 46.42,-42.76 51.3,-37.74"/>
</g>
<!-- S1 -->
<g id="node3" class="node">
<title>S1</title>
<ellipse fill="gray" stroke="black" cx="99" cy="-18" rx="27" ry="18"/>
<text text-anchor="middle" x="99" y="-15.8" font-family="Times,serif" font-size="9.00">S1</text>
</g>
<!-- SituationSelector&#45;&gt;S1 -->
<g id="edge2" class="edge">
<title>SituationSelector&#45;&gt;S1</title>
<path fill="none" stroke="black" d="M99,-71.7C99,-63.98 99,-54.71 99,-46.11"/>
<polygon fill="black" stroke="black" points="102.5,-46.1 99,-36.1 95.5,-46.1 102.5,-46.1"/>
</g>
<!-- S2 -->
<g id="node4" class="node">
<title>S2</title>
<ellipse fill="gray" stroke="black" cx="171" cy="-18" rx="27" ry="18"/>
<text text-anchor="middle" x="171" y="-15.8" font-family="Times,serif" font-size="9.00">S2</text>
</g>
<!-- SituationSelector&#45;&gt;S2 -->
<g id="edge3" class="edge">
<title>SituationSelector&#45;&gt;S2</title>
<path fill="none" stroke="black" d="M116.8,-71.7C126.49,-62.28 138.56,-50.53 148.86,-40.53"/>
<polygon fill="black" stroke="black" points="151.58,-42.76 156.31,-33.28 146.7,-37.74 151.58,-42.76"/>
</g>
</g>
</svg>
