<?xml version="1.0" encoding="UTF-8" standalone="no"?>
<!DOCTYPE svg PUBLIC "-//W3C//DTD SVG 1.1//EN"
 "http://www.w3.org/Graphics/SVG/1.1/DTD/svg11.dtd">
<!-- Generated by graphviz version 2.43.0 (0)
 -->
<!-- Title: pastafarianism Pages: 1 -->
<svg width="1494pt" height="332pt"
 viewBox="0.00 0.00 1493.53 332.00" xmlns="http://www.w3.org/2000/svg" xmlns:xlink="http://www.w3.org/1999/xlink">
<g id="graph0" class="graph" transform="scale(1 1) rotate(0) translate(4 328)">
<title>pastafarianism</title>
<polygon fill="white" stroke="transparent" points="-4,4 -4,-328 1489.53,-328 1489.53,4 -4,4"/>
<!-- MZCS -->
<g id="node1" class="node">
<title>MZCS</title>
<polygon fill="cyan" stroke="black" points="718.49,-298.54 718.49,-313.46 702.39,-324 679.61,-324 663.51,-313.46 663.51,-298.54 679.61,-288 702.39,-288 718.49,-298.54"/>
<text text-anchor="middle" x="691" y="-303.8" font-family="Times,serif" font-size="9.00">MZCS</text>
</g>
<!-- M1_sequence -->
<g id="node2" class="node">
<title>M1_sequence</title>
<polygon fill="orange" stroke="black" points="362,-252 282,-252 282,-216 362,-216 362,-252"/>
<text text-anchor="middle" x="322" y="-231.8" font-family="Times,serif" font-size="9.00">M1_sequence</text>
</g>
<!-- MZCS&#45;&gt;M1_sequence -->
<g id="edge1" class="edge">
<title>MZCS&#45;&gt;M1_sequence</title>
<path fill="none" stroke="black" d="M663.27,-299.74C601.35,-287.99 451.12,-259.49 372.25,-244.53"/>
<polygon fill="black" stroke="black" points="372.55,-241.03 362.08,-242.6 371.25,-247.91 372.55,-241.03"/>
</g>
<!-- M2_sequence -->
<g id="node14" class="node">
<title>M2_sequence</title>
<polygon fill="orange" stroke="black" points="731,-252 651,-252 651,-216 731,-216 731,-252"/>
<text text-anchor="middle" x="691" y="-231.8" font-family="Times,serif" font-size="9.00">M2_sequence</text>
</g>
<!-- MZCS&#45;&gt;M2_sequence -->
<g id="edge13" class="edge">
<title>MZCS&#45;&gt;M2_sequence</title>
<path fill="none" stroke="black" d="M691,-287.7C691,-279.98 691,-270.71 691,-262.11"/>
<polygon fill="black" stroke="black" points="694.5,-262.1 691,-252.1 687.5,-262.1 694.5,-262.1"/>
</g>
<!-- M3_sequence -->
<g id="node26" class="node">
<title>M3_sequence</title>
<polygon fill="orange" stroke="black" points="867,-252 787,-252 787,-216 867,-216 867,-252"/>
<text text-anchor="middle" x="827" y="-231.8" font-family="Times,serif" font-size="9.00">M3_sequence</text>
</g>
<!-- MZCS&#45;&gt;M3_sequence -->
<g id="edge25" class="edge">
<title>MZCS&#45;&gt;M3_sequence</title>
<path fill="none" stroke="black" d="M711.95,-294.22C731.31,-284.25 760.65,-269.15 784.85,-256.7"/>
<polygon fill="black" stroke="black" points="786.55,-259.75 793.84,-252.07 783.35,-253.53 786.55,-259.75"/>
</g>
<!-- is_M1 -->
<g id="node3" class="node">
<title>is_M1</title>
<ellipse fill="gray" stroke="black" cx="238" cy="-162" rx="27" ry="18"/>
<text text-anchor="middle" x="238" y="-159.8" font-family="Times,serif" font-size="9.00">is_M1</text>
</g>
<!-- M1_sequence&#45;&gt;is_M1 -->
<g id="edge2" class="edge">
<title>M1_sequence&#45;&gt;is_M1</title>
<path fill="none" stroke="black" d="M301.24,-215.7C289.36,-205.8 274.41,-193.34 262.03,-183.02"/>
<polygon fill="black" stroke="black" points="264.24,-180.31 254.32,-176.6 259.76,-185.69 264.24,-180.31"/>
</g>
<!-- BCCS_M1 -->
<g id="node4" class="node">
<title>BCCS_M1</title>
<polygon fill="cyan" stroke="black" points="360.99,-154.54 360.99,-169.46 338.15,-180 305.85,-180 283.01,-169.46 283.01,-154.54 305.85,-144 338.15,-144 360.99,-154.54"/>
<text text-anchor="middle" x="322" y="-159.8" font-family="Times,serif" font-size="9.00">BCCS_M1</text>
</g>
<!-- M1_sequence&#45;&gt;BCCS_M1 -->
<g id="edge3" class="edge">
<title>M1_sequence&#45;&gt;BCCS_M1</title>
<path fill="none" stroke="black" d="M322,-215.7C322,-207.98 322,-198.71 322,-190.11"/>
<polygon fill="black" stroke="black" points="325.5,-190.1 322,-180.1 318.5,-190.1 325.5,-190.1"/>
</g>
<!-- M1_B1_sequence -->
<g id="node5" class="node">
<title>M1_B1_sequence</title>
<polygon fill="orange" stroke="black" points="159.5,-108 62.5,-108 62.5,-72 159.5,-72 159.5,-108"/>
<text text-anchor="middle" x="111" y="-87.8" font-family="Times,serif" font-size="9.00">M1_B1_sequence</text>
</g>
<!-- BCCS_M1&#45;&gt;M1_B1_sequence -->
<g id="edge4" class="edge">
<title>BCCS_M1&#45;&gt;M1_B1_sequence</title>
<path fill="none" stroke="black" d="M292.08,-150.27C286.1,-148.16 279.86,-145.99 274,-144 239.42,-132.26 200.54,-119.59 169.42,-109.59"/>
<polygon fill="black" stroke="black" points="170.2,-106.16 159.61,-106.44 168.06,-112.83 170.2,-106.16"/>
</g>
<!-- M1_B2_sequence -->
<g id="node8" class="node">
<title>M1_B2_sequence</title>
<polygon fill="orange" stroke="black" points="312.5,-108 215.5,-108 215.5,-72 312.5,-72 312.5,-108"/>
<text text-anchor="middle" x="264" y="-87.8" font-family="Times,serif" font-size="9.00">M1_B2_sequence</text>
</g>
<!-- BCCS_M1&#45;&gt;M1_B2_sequence -->
<g id="edge7" class="edge">
<title>BCCS_M1&#45;&gt;M1_B2_sequence</title>
<path fill="none" stroke="black" d="M307.66,-143.7C300.71,-135.3 292.23,-125.07 284.6,-115.86"/>
<polygon fill="black" stroke="black" points="287.25,-113.57 278.17,-108.1 281.86,-118.04 287.25,-113.57"/>
</g>
<!-- M1_B3_sequence -->
<g id="node11" class="node">
<title>M1_B3_sequence</title>
<polygon fill="orange" stroke="black" points="427.5,-108 330.5,-108 330.5,-72 427.5,-72 427.5,-108"/>
<text text-anchor="middle" x="379" y="-87.8" font-family="Times,serif" font-size="9.00">M1_B3_sequence</text>
</g>
<!-- BCCS_M1&#45;&gt;M1_B3_sequence -->
<g id="edge10" class="edge">
<title>BCCS_M1&#45;&gt;M1_B3_sequence</title>
<path fill="none" stroke="black" d="M336.09,-143.7C342.92,-135.3 351.26,-125.07 358.76,-115.86"/>
<polygon fill="black" stroke="black" points="361.47,-118.07 365.07,-108.1 356.04,-113.65 361.47,-118.07"/>
</g>
<!-- is_B1 -->
<g id="node6" class="node">
<title>is_B1</title>
<ellipse fill="gray" stroke="black" cx="27" cy="-18" rx="27" ry="18"/>
<text text-anchor="middle" x="27" y="-15.8" font-family="Times,serif" font-size="9.00">is_B1</text>
</g>
<!-- M1_B1_sequence&#45;&gt;is_B1 -->
<g id="edge5" class="edge">
<title>M1_B1_sequence&#45;&gt;is_B1</title>
<path fill="none" stroke="black" d="M90.24,-71.7C78.36,-61.8 63.41,-49.34 51.03,-39.02"/>
<polygon fill="black" stroke="black" points="53.24,-36.31 43.32,-32.6 48.76,-41.69 53.24,-36.31"/>
</g>
<!-- SN_M1_B1 -->
<g id="node7" class="node">
<title>SN_M1_B1</title>
<ellipse fill="gray" stroke="black" cx="111" cy="-18" rx="39.02" ry="18"/>
<text text-anchor="middle" x="111" y="-15.8" font-family="Times,serif" font-size="9.00">SN_M1_B1</text>
</g>
<!-- M1_B1_sequence&#45;&gt;SN_M1_B1 -->
<g id="edge6" class="edge">
<title>M1_B1_sequence&#45;&gt;SN_M1_B1</title>
<path fill="none" stroke="black" d="M111,-71.7C111,-63.98 111,-54.71 111,-46.11"/>
<polygon fill="black" stroke="black" points="114.5,-46.1 111,-36.1 107.5,-46.1 114.5,-46.1"/>
</g>
<!-- is_B2 -->
<g id="node9" class="node">
<title>is_B2</title>
<ellipse fill="gray" stroke="black" cx="195" cy="-18" rx="27" ry="18"/>
<text text-anchor="middle" x="195" y="-15.8" font-family="Times,serif" font-size="9.00">is_B2</text>
</g>
<!-- M1_B2_sequence&#45;&gt;is_B2 -->
<g id="edge8" class="edge">
<title>M1_B2_sequence&#45;&gt;is_B2</title>
<path fill="none" stroke="black" d="M246.94,-71.7C237.78,-62.41 226.4,-50.86 216.63,-40.94"/>
<polygon fill="black" stroke="black" points="219.04,-38.4 209.53,-33.74 214.06,-43.32 219.04,-38.4"/>
</g>
<!-- SN_M1_B2 -->
<g id="node10" class="node">
<title>SN_M1_B2</title>
<ellipse fill="gray" stroke="black" cx="279" cy="-18" rx="39.02" ry="18"/>
<text text-anchor="middle" x="279" y="-15.8" font-family="Times,serif" font-size="9.00">SN_M1_B2</text>
</g>
<!-- M1_B2_sequence&#45;&gt;SN_M1_B2 -->
<g id="edge9" class="edge">
<title>M1_B2_sequence&#45;&gt;SN_M1_B2</title>
<path fill="none" stroke="black" d="M267.71,-71.7C269.36,-63.98 271.35,-54.71 273.19,-46.11"/>
<polygon fill="black" stroke="black" points="276.66,-46.62 275.33,-36.1 269.82,-45.15 276.66,-46.62"/>
</g>
<!-- is_B3 -->
<g id="node12" class="node">
<title>is_B3</title>
<ellipse fill="gray" stroke="black" cx="363" cy="-18" rx="27" ry="18"/>
<text text-anchor="middle" x="363" y="-15.8" font-family="Times,serif" font-size="9.00">is_B3</text>
</g>
<!-- M1_B3_sequence&#45;&gt;is_B3 -->
<g id="edge11" class="edge">
<title>M1_B3_sequence&#45;&gt;is_B3</title>
<path fill="none" stroke="black" d="M375.04,-71.7C373.28,-63.98 371.16,-54.71 369.2,-46.11"/>
<polygon fill="black" stroke="black" points="372.55,-45.07 366.91,-36.1 365.73,-46.63 372.55,-45.07"/>
</g>
<!-- S0_M1_B3 -->
<g id="node13" class="node">
<title>S0_M1_B3</title>
<ellipse fill="gray" stroke="black" cx="446" cy="-18" rx="37.56" ry="18"/>
<text text-anchor="middle" x="446" y="-15.8" font-family="Times,serif" font-size="9.00">S0_M1_B3</text>
</g>
<!-- M1_B3_sequence&#45;&gt;S0_M1_B3 -->
<g id="edge12" class="edge">
<title>M1_B3_sequence&#45;&gt;S0_M1_B3</title>
<path fill="none" stroke="black" d="M395.56,-71.7C404.12,-62.75 414.69,-51.71 423.93,-42.06"/>
<polygon fill="black" stroke="black" points="426.61,-44.32 431,-34.67 421.56,-39.48 426.61,-44.32"/>
</g>
<!-- is_M2 -->
<g id="node15" class="node">
<title>is_M2</title>
<ellipse fill="gray" stroke="black" cx="652" cy="-162" rx="27" ry="18"/>
<text text-anchor="middle" x="652" y="-159.8" font-family="Times,serif" font-size="9.00">is_M2</text>
</g>
<!-- M2_sequence&#45;&gt;is_M2 -->
<g id="edge14" class="edge">
<title>M2_sequence&#45;&gt;is_M2</title>
<path fill="none" stroke="black" d="M681.36,-215.7C676.69,-207.32 671,-197.1 665.87,-187.9"/>
<polygon fill="black" stroke="black" points="668.92,-186.18 660.99,-179.14 662.8,-189.58 668.92,-186.18"/>
</g>
<!-- BCCS_M2 -->
<g id="node16" class="node">
<title>BCCS_M2</title>
<polygon fill="cyan" stroke="black" points="774.99,-154.54 774.99,-169.46 752.15,-180 719.85,-180 697.01,-169.46 697.01,-154.54 719.85,-144 752.15,-144 774.99,-154.54"/>
<text text-anchor="middle" x="736" y="-159.8" font-family="Times,serif" font-size="9.00">BCCS_M2</text>
</g>
<!-- M2_sequence&#45;&gt;BCCS_M2 -->
<g id="edge15" class="edge">
<title>M2_sequence&#45;&gt;BCCS_M2</title>
<path fill="none" stroke="black" d="M702.12,-215.7C707.36,-207.56 713.7,-197.69 719.48,-188.7"/>
<polygon fill="black" stroke="black" points="722.54,-190.41 725,-180.1 716.65,-186.62 722.54,-190.41"/>
</g>
<!-- M2_B1_sequence -->
<g id="node17" class="node">
<title>M2_B1_sequence</title>
<polygon fill="orange" stroke="black" points="660.5,-108 563.5,-108 563.5,-72 660.5,-72 660.5,-108"/>
<text text-anchor="middle" x="612" y="-87.8" font-family="Times,serif" font-size="9.00">M2_B1_sequence</text>
</g>
<!-- BCCS_M2&#45;&gt;M2_B1_sequence -->
<g id="edge16" class="edge">
<title>BCCS_M2&#45;&gt;M2_B1_sequence</title>
<path fill="none" stroke="black" d="M712.09,-147.5C694.88,-137.79 671.28,-124.46 651.31,-113.19"/>
<polygon fill="black" stroke="black" points="652.86,-110.05 642.43,-108.18 649.42,-116.14 652.86,-110.05"/>
</g>
<!-- M2_B2_sequence -->
<g id="node20" class="node">
<title>M2_B2_sequence</title>
<polygon fill="orange" stroke="black" points="784.5,-108 687.5,-108 687.5,-72 784.5,-72 784.5,-108"/>
<text text-anchor="middle" x="736" y="-87.8" font-family="Times,serif" font-size="9.00">M2_B2_sequence</text>
</g>
<!-- BCCS_M2&#45;&gt;M2_B2_sequence -->
<g id="edge19" class="edge">
<title>BCCS_M2&#45;&gt;M2_B2_sequence</title>
<path fill="none" stroke="black" d="M736,-143.7C736,-135.98 736,-126.71 736,-118.11"/>
<polygon fill="black" stroke="black" points="739.5,-118.1 736,-108.1 732.5,-118.1 739.5,-118.1"/>
</g>
<!-- M2_B3_sequence -->
<g id="node23" class="node">
<title>M2_B3_sequence</title>
<polygon fill="orange" stroke="black" points="909.5,-108 812.5,-108 812.5,-72 909.5,-72 909.5,-108"/>
<text text-anchor="middle" x="861" y="-87.8" font-family="Times,serif" font-size="9.00">M2_B3_sequence</text>
</g>
<!-- BCCS_M2&#45;&gt;M2_B3_sequence -->
<g id="edge22" class="edge">
<title>BCCS_M2&#45;&gt;M2_B3_sequence</title>
<path fill="none" stroke="black" d="M760.1,-147.5C777.45,-137.79 801.24,-124.46 821.37,-113.19"/>
<polygon fill="black" stroke="black" points="823.31,-116.12 830.32,-108.18 819.89,-110.01 823.31,-116.12"/>
</g>
<!-- is_B1* -->
<g id="node18" class="node">
<title>is_B1*</title>
<ellipse fill="gray" stroke="black" cx="529" cy="-18" rx="27" ry="18"/>
<text text-anchor="middle" x="529" y="-15.8" font-family="Times,serif" font-size="9.00">is_B1*</text>
</g>
<!-- M2_B1_sequence&#45;&gt;is_B1* -->
<g id="edge17" class="edge">
<title>M2_B1_sequence&#45;&gt;is_B1*</title>
<path fill="none" stroke="black" d="M591.48,-71.7C579.86,-61.89 565.26,-49.58 553.09,-39.32"/>
<polygon fill="black" stroke="black" points="555.03,-36.37 545.12,-32.6 550.51,-41.72 555.03,-36.37"/>
</g>
<!-- S1_M2_B1 -->
<g id="node19" class="node">
<title>S1_M2_B1</title>
<ellipse fill="gray" stroke="black" cx="612" cy="-18" rx="37.56" ry="18"/>
<text text-anchor="middle" x="612" y="-15.8" font-family="Times,serif" font-size="9.00">S1_M2_B1</text>
</g>
<!-- M2_B1_sequence&#45;&gt;S1_M2_B1 -->
<g id="edge18" class="edge">
<title>M2_B1_sequence&#45;&gt;S1_M2_B1</title>
<path fill="none" stroke="black" d="M612,-71.7C612,-63.98 612,-54.71 612,-46.11"/>
<polygon fill="black" stroke="black" points="615.5,-46.1 612,-36.1 608.5,-46.1 615.5,-46.1"/>
</g>
<!-- is_B2* -->
<g id="node21" class="node">
<title>is_B2*</title>
<ellipse fill="gray" stroke="black" cx="695" cy="-18" rx="27" ry="18"/>
<text text-anchor="middle" x="695" y="-15.8" font-family="Times,serif" font-size="9.00">is_B2*</text>
</g>
<!-- M2_B2_sequence&#45;&gt;is_B2* -->
<g id="edge20" class="edge">
<title>M2_B2_sequence&#45;&gt;is_B2*</title>
<path fill="none" stroke="black" d="M725.87,-71.7C720.96,-63.32 714.97,-53.1 709.58,-43.9"/>
<polygon fill="black" stroke="black" points="712.53,-42 704.46,-35.14 706.49,-45.54 712.53,-42"/>
</g>
<!-- S2_M2_B2 -->
<g id="node22" class="node">
<title>S2_M2_B2</title>
<ellipse fill="gray" stroke="black" cx="778" cy="-18" rx="37.56" ry="18"/>
<text text-anchor="middle" x="778" y="-15.8" font-family="Times,serif" font-size="9.00">S2_M2_B2</text>
</g>
<!-- M2_B2_sequence&#45;&gt;S2_M2_B2 -->
<g id="edge21" class="edge">
<title>M2_B2_sequence&#45;&gt;S2_M2_B2</title>
<path fill="none" stroke="black" d="M746.38,-71.7C751.34,-63.44 757.36,-53.39 762.82,-44.3"/>
<polygon fill="black" stroke="black" points="765.88,-46 768.03,-35.62 759.88,-42.4 765.88,-46"/>
</g>
<!-- is_B3* -->
<g id="node24" class="node">
<title>is_B3*</title>
<ellipse fill="gray" stroke="black" cx="861" cy="-18" rx="27" ry="18"/>
<text text-anchor="middle" x="861" y="-15.8" font-family="Times,serif" font-size="9.00">is_B3*</text>
</g>
<!-- M2_B3_sequence&#45;&gt;is_B3* -->
<g id="edge23" class="edge">
<title>M2_B3_sequence&#45;&gt;is_B3*</title>
<path fill="none" stroke="black" d="M861,-71.7C861,-63.98 861,-54.71 861,-46.11"/>
<polygon fill="black" stroke="black" points="864.5,-46.1 861,-36.1 857.5,-46.1 864.5,-46.1"/>
</g>
<!-- S0_M2_B3 -->
<g id="node25" class="node">
<title>S0_M2_B3</title>
<ellipse fill="gray" stroke="black" cx="944" cy="-18" rx="37.56" ry="18"/>
<text text-anchor="middle" x="944" y="-15.8" font-family="Times,serif" font-size="9.00">S0_M2_B3</text>
</g>
<!-- M2_B3_sequence&#45;&gt;S0_M2_B3 -->
<g id="edge24" class="edge">
<title>M2_B3_sequence&#45;&gt;S0_M2_B3</title>
<path fill="none" stroke="black" d="M881.52,-71.7C892.67,-62.29 906.57,-50.57 918.43,-40.57"/>
<polygon fill="black" stroke="black" points="920.86,-43.09 926.25,-33.97 916.35,-37.74 920.86,-43.09"/>
</g>
<!-- is_M3 -->
<g id="node27" class="node">
<title>is_M3</title>
<ellipse fill="gray" stroke="black" cx="827" cy="-162" rx="27" ry="18"/>
<text text-anchor="middle" x="827" y="-159.8" font-family="Times,serif" font-size="9.00">is_M3</text>
</g>
<!-- M3_sequence&#45;&gt;is_M3 -->
<g id="edge26" class="edge">
<title>M3_sequence&#45;&gt;is_M3</title>
<path fill="none" stroke="black" d="M827,-215.7C827,-207.98 827,-198.71 827,-190.11"/>
<polygon fill="black" stroke="black" points="830.5,-190.1 827,-180.1 823.5,-190.1 830.5,-190.1"/>
</g>
<!-- BCCS_M3 -->
<g id="node28" class="node">
<title>BCCS_M3</title>
<polygon fill="cyan" stroke="black" points="1191.99,-154.54 1191.99,-169.46 1169.15,-180 1136.85,-180 1114.01,-169.46 1114.01,-154.54 1136.85,-144 1169.15,-144 1191.99,-154.54"/>
<text text-anchor="middle" x="1153" y="-159.8" font-family="Times,serif" font-size="9.00">BCCS_M3</text>
</g>
<!-- M3_sequence&#45;&gt;BCCS_M3 -->
<g id="edge27" class="edge">
<title>M3_sequence&#45;&gt;BCCS_M3</title>
<path fill="none" stroke="black" d="M867.3,-224.35C928.1,-211.29 1042.96,-186.63 1106.97,-172.88"/>
<polygon fill="black" stroke="black" points="1107.75,-176.3 1116.79,-170.77 1106.28,-169.45 1107.75,-176.3"/>
</g>
<!-- M3_B1_sequence -->
<g id="node29" class="node">
<title>M3_B1_sequence</title>
<polygon fill="orange" stroke="black" points="1144.5,-108 1047.5,-108 1047.5,-72 1144.5,-72 1144.5,-108"/>
<text text-anchor="middle" x="1096" y="-87.8" font-family="Times,serif" font-size="9.00">M3_B1_sequence</text>
</g>
<!-- BCCS_M3&#45;&gt;M3_B1_sequence -->
<g id="edge28" class="edge">
<title>BCCS_M3&#45;&gt;M3_B1_sequence</title>
<path fill="none" stroke="black" d="M1138.91,-143.7C1132.08,-135.3 1123.74,-125.07 1116.24,-115.86"/>
<polygon fill="black" stroke="black" points="1118.96,-113.65 1109.93,-108.1 1113.53,-118.07 1118.96,-113.65"/>
</g>
<!-- M3_B2_sequence -->
<g id="node32" class="node">
<title>M3_B2_sequence</title>
<polygon fill="orange" stroke="black" points="1259.5,-108 1162.5,-108 1162.5,-72 1259.5,-72 1259.5,-108"/>
<text text-anchor="middle" x="1211" y="-87.8" font-family="Times,serif" font-size="9.00">M3_B2_sequence</text>
</g>
<!-- BCCS_M3&#45;&gt;M3_B2_sequence -->
<g id="edge31" class="edge">
<title>BCCS_M3&#45;&gt;M3_B2_sequence</title>
<path fill="none" stroke="black" d="M1167.34,-143.7C1174.29,-135.3 1182.77,-125.07 1190.4,-115.86"/>
<polygon fill="black" stroke="black" points="1193.14,-118.04 1196.83,-108.1 1187.75,-113.57 1193.14,-118.04"/>
</g>
<!-- M3_B3_sequence -->
<g id="node35" class="node">
<title>M3_B3_sequence</title>
<polygon fill="orange" stroke="black" points="1412.5,-108 1315.5,-108 1315.5,-72 1412.5,-72 1412.5,-108"/>
<text text-anchor="middle" x="1364" y="-87.8" font-family="Times,serif" font-size="9.00">M3_B3_sequence</text>
</g>
<!-- BCCS_M3&#45;&gt;M3_B3_sequence -->
<g id="edge34" class="edge">
<title>BCCS_M3&#45;&gt;M3_B3_sequence</title>
<path fill="none" stroke="black" d="M1184.13,-150.67C1215.94,-140.12 1266.1,-123.48 1305.38,-110.45"/>
<polygon fill="black" stroke="black" points="1306.73,-113.69 1315.12,-107.22 1304.52,-107.04 1306.73,-113.69"/>
</g>
<!-- is_B1** -->
<g id="node30" class="node">
<title>is_B1**</title>
<ellipse fill="gray" stroke="black" cx="1028" cy="-18" rx="28.74" ry="18"/>
<text text-anchor="middle" x="1028" y="-15.8" font-family="Times,serif" font-size="9.00">is_B1**</text>
</g>
<!-- M3_B1_sequence&#45;&gt;is_B1** -->
<g id="edge29" class="edge">
<title>M3_B1_sequence&#45;&gt;is_B1**</title>
<path fill="none" stroke="black" d="M1079.19,-71.7C1070.16,-62.41 1058.95,-50.86 1049.31,-40.94"/>
<polygon fill="black" stroke="black" points="1051.8,-38.47 1042.32,-33.74 1046.77,-43.35 1051.8,-38.47"/>
</g>
<!-- S1_M3_B1 -->
<g id="node31" class="node">
<title>S1_M3_B1</title>
<ellipse fill="gray" stroke="black" cx="1112" cy="-18" rx="37.56" ry="18"/>
<text text-anchor="middle" x="1112" y="-15.8" font-family="Times,serif" font-size="9.00">S1_M3_B1</text>
</g>
<!-- M3_B1_sequence&#45;&gt;S1_M3_B1 -->
<g id="edge30" class="edge">
<title>M3_B1_sequence&#45;&gt;S1_M3_B1</title>
<path fill="none" stroke="black" d="M1099.96,-71.7C1101.72,-63.98 1103.84,-54.71 1105.8,-46.11"/>
<polygon fill="black" stroke="black" points="1109.27,-46.63 1108.09,-36.1 1102.45,-45.07 1109.27,-46.63"/>
</g>
<!-- is_B2** -->
<g id="node33" class="node">
<title>is_B2**</title>
<ellipse fill="gray" stroke="black" cx="1196" cy="-18" rx="28.74" ry="18"/>
<text text-anchor="middle" x="1196" y="-15.8" font-family="Times,serif" font-size="9.00">is_B2**</text>
</g>
<!-- M3_B2_sequence&#45;&gt;is_B2** -->
<g id="edge32" class="edge">
<title>M3_B2_sequence&#45;&gt;is_B2**</title>
<path fill="none" stroke="black" d="M1207.29,-71.7C1205.64,-63.98 1203.65,-54.71 1201.81,-46.11"/>
<polygon fill="black" stroke="black" points="1205.18,-45.15 1199.67,-36.1 1198.34,-46.62 1205.18,-45.15"/>
</g>
<!-- S1_M3_B2 -->
<g id="node34" class="node">
<title>S1_M3_B2</title>
<ellipse fill="gray" stroke="black" cx="1280" cy="-18" rx="37.56" ry="18"/>
<text text-anchor="middle" x="1280" y="-15.8" font-family="Times,serif" font-size="9.00">S1_M3_B2</text>
</g>
<!-- M3_B2_sequence&#45;&gt;S1_M3_B2 -->
<g id="edge33" class="edge">
<title>M3_B2_sequence&#45;&gt;S1_M3_B2</title>
<path fill="none" stroke="black" d="M1228.06,-71.7C1236.87,-62.75 1247.75,-51.71 1257.27,-42.06"/>
<polygon fill="black" stroke="black" points="1260.03,-44.25 1264.55,-34.67 1255.04,-39.34 1260.03,-44.25"/>
</g>
<!-- is_B3** -->
<g id="node36" class="node">
<title>is_B3**</title>
<ellipse fill="gray" stroke="black" cx="1364" cy="-18" rx="28.74" ry="18"/>
<text text-anchor="middle" x="1364" y="-15.8" font-family="Times,serif" font-size="9.00">is_B3**</text>
</g>
<!-- M3_B3_sequence&#45;&gt;is_B3** -->
<g id="edge35" class="edge">
<title>M3_B3_sequence&#45;&gt;is_B3**</title>
<path fill="none" stroke="black" d="M1364,-71.7C1364,-63.98 1364,-54.71 1364,-46.11"/>
<polygon fill="black" stroke="black" points="1367.5,-46.1 1364,-36.1 1360.5,-46.1 1367.5,-46.1"/>
</g>
<!-- S0_M3_B3 -->
<g id="node37" class="node">
<title>S0_M3_B3</title>
<ellipse fill="gray" stroke="black" cx="1448" cy="-18" rx="37.56" ry="18"/>
<text text-anchor="middle" x="1448" y="-15.8" font-family="Times,serif" font-size="9.00">S0_M3_B3</text>
</g>
<!-- M3_B3_sequence&#45;&gt;S0_M3_B3 -->
<g id="edge36" class="edge">
<title>M3_B3_sequence&#45;&gt;S0_M3_B3</title>
<path fill="none" stroke="black" d="M1384.76,-71.7C1396.05,-62.29 1410.12,-50.57 1422.12,-40.57"/>
<polygon fill="black" stroke="black" points="1424.59,-43.06 1430.04,-33.97 1420.11,-37.68 1424.59,-43.06"/>
</g>
</g>
</svg>
